<svg xmlns="http://www.w3.org/2000/svg" viewBox="0 0 120 120" width="120" height="120" role="img" aria-label="Serrow">
  <defs><radialGradient id="gw" cx="50%" cy="50%" r="50%">
    <stop offset="0%" stop-color="#fff2d4"/><stop offset="22%" stop-color="#f2c879"/>
    <stop offset="70%" stop-color="#f2c879" stop-opacity=".55"/><stop offset="100%" stop-color="#f2c879" stop-opacity="0"/>
  </radialGradient></defs>
  <path d="M61.00 60.00 L61.01 60.10 L61.00 60.20 L60.99 60.30 L60.97 60.40 L60.94 60.50 L60.89 60.60 L60.84 60.69 L60.78 60.78 L60.71 60.86 L60.63 60.94 L60.54 61.01 L60.44 61.07 L60.34 61.12 L60.23 61.16 L60.12 61.19 L60.00 61.21 L59.88 61.22 L59.76 61.22 L59.63 61.21 L59.51 61.18 L59.39 61.14 L59.27 61.09 L59.16 61.02 L59.05 60.95 L58.95 60.86 L58.86 60.76 L58.78 60.65 L58.70 60.54 L58.64 60.41 L58.59 60.28 L58.55 60.14 L58.52 60.00 L58.51 59.85 L58.52 59.71 L58.54 59.56 L58.57 59.41 L58.62 59.26 L58.68 59.12 L58.76 58.98 L58.85 58.85 L58.96 58.73 L59.07 58.61 L59.20 58.51 L59.35 58.42 L59.50 58.35 L59.66 58.28 L59.83 58.24 L60.00 58.21 L60.18 58.19 L60.36 58.20 L60.54 58.22 L60.72 58.26 L60.90 58.32 L61.07 58.40 L61.24 58.49 L61.40 58.60 L61.55 58.73 L61.68 58.88 L61.81 59.03 L61.92 59.21 L62.01 59.39 L62.08 59.59 L62.14 59.79 L62.18 60.00 L62.19 60.22 L62.19 60.44 L62.16 60.66 L62.11 60.87 L62.04 61.09 L61.95 61.30 L61.83 61.50 L61.70 61.70 L61.54 61.88 L61.37 62.05 L61.17 62.20 L60.96 62.33 L60.74 62.44 L60.50 62.53 L60.26 62.60 L60.00 62.65 L59.74 62.67 L59.47 62.66 L59.20 62.63 L58.94 62.57 L58.67 62.48 L58.42 62.37 L58.17 62.23 L57.94 62.06 L57.72 61.87 L57.52 61.66 L57.33 61.43 L57.17 61.17 L57.03 60.90 L56.92 60.61 L56.84 60.31 L56.79 60.00 L56.76 59.68 L56.77 59.36 L56.81 59.03 L56.88 58.71 L56.99 58.39 L57.13 58.08 L57.29 57.78 L57.50 57.50 L57.73 57.23 L57.98 56.98 L58.27 56.76 L58.58 56.56 L58.91 56.40 L59.26 56.26 L59.62 56.16 L60.00 56.10 L60.39 56.07 L60.78 56.08 L61.18 56.12 L61.57 56.21 L61.96 56.34 L62.33 56.51 L62.70 56.71 L63.04 56.96 L63.37 57.24 L63.67 57.55 L63.94 57.90 L64.17 58.27 L64.38 58.67 L64.54 59.10 L64.66 59.54 L64.74 60.00 L64.78 60.47 L64.77 60.95 L64.71 61.43 L64.60 61.91 L64.45 62.38 L64.24 62.83 L63.99 63.28 L63.70 63.70 L63.36 64.09 L62.98 64.45 L62.56 64.78 L62.10 65.07 L61.61 65.32 L61.10 65.52 L60.56 65.67 L60.00 65.76 L59.43 65.80 L58.85 65.79 L58.27 65.72 L57.68 65.59 L57.11 65.40 L56.56 65.15 L56.02 64.85 L55.51 64.49 L55.03 64.08 L54.59 63.62 L54.19 63.11 L53.84 62.55 L53.54 61.96 L53.30 61.33 L53.12 60.68 L53.00 60.00 L52.95 59.31 L52.97 58.60 L53.05 57.89 L53.21 57.19 L53.44 56.49 L53.74 55.82 L54.11 55.16 L54.54 54.54 L55.05 53.96 L55.61 53.43 L56.23 52.94 L56.90 52.52 L57.62 52.15 L58.38 51.86 L59.18 51.64 L60.00 51.50 L60.84 51.43 L61.70 51.45 L62.56 51.56 L63.42 51.75 L64.26 52.03 L65.08 52.39 L65.87 52.84 L66.63 53.37 L67.33 53.98 L67.98 54.66 L68.57 55.42 L69.09 56.23 L69.53 57.11 L69.89 58.03 L70.16 59.00 L70.33 60.00 L70.41 61.02 L70.38 62.06 L70.25 63.11 L70.02 64.15 L69.68 65.18 L69.24 66.17 L68.70 67.14 L68.05 68.05 L67.31 68.91 L66.48 69.70 L65.57 70.41 L64.57 71.04 L63.51 71.58 L62.39 72.01 L61.22 72.34 L60.00 72.55 L58.75 72.64 L57.49 72.61 L56.22 72.46 L54.96 72.17 L53.71 71.76 L52.50 71.22 L51.33 70.56 L50.22 69.78 L49.18 68.88 L48.22 67.87 L47.35 66.76 L46.58 65.56 L45.93 64.27 L45.41 62.90 L45.01 61.48 L44.75 60.00 L44.64 58.49 L44.68 56.95 L44.87 55.41 L45.21 53.88 L45.71 52.36 L46.36 50.89 L47.17 49.47 L48.12 48.12 L49.21 46.85 L50.43 45.68 L51.78 44.63 L53.25 43.70 L54.82 42.91 L56.47 42.27 L58.21 41.79 L60.00 41.48 L61.84 41.34 L63.70 41.39 L65.58 41.62 L67.44 42.04 L69.28 42.64 L71.07 43.44 L72.79 44.41 L74.43 45.57 L75.97 46.89 L77.39 48.38 L78.67 50.02 L79.80 51.80 L80.76 53.70 L81.54 55.72 L82.12 57.82 L82.50 60.00 L82.66 62.23 L82.61 64.50 L82.33 66.77 L81.82 69.04 L81.09 71.27 L80.12 73.45 L78.94 75.54 L77.53 77.53 L75.92 79.40 L74.12 81.13 L72.12 82.68 L69.96 84.05 L67.65 85.22 L65.20 86.16 L62.65 86.87 L60.00 87.33 L57.29 87.53 L54.54 87.47 L51.77 87.13 L49.02 86.51 L46.31 85.62 L43.67 84.45 L41.12 83.01 L38.70 81.30 L36.43 79.34 L34.34 77.15 L32.45 74.73 L30.78 72.10 L29.37 69.29 L28.22 66.32 L27.36 63.22 L26.80 60.00 L26.55 56.71 L26.63 53.36 L27.05 50.00 L27.80 46.66 L28.88 43.37 L30.30 40.16 L32.05 37.06 L34.12 34.12 L36.50 31.36 L39.17 28.82 L42.11 26.53 L45.30 24.50 L48.71 22.78 L52.32 21.39 L56.09 20.34 L60.00 19.66 L64.00 19.37 L68.06 19.47 L72.14 19.97 L76.21 20.88 L80.21 22.20 L84.11 23.92 L87.86 26.05 L91.44 28.56 L94.79 31.45 L97.87 34.69 L100.66 38.26 L103.12 42.14 L105.21 46.29 L106.90 50.67 L108.17 55.26 L109.00 60.00" fill="none" stroke="url(#gw)" stroke-width="2.3" stroke-linecap="round"/>
  <circle cx="60" cy="60" r="4.2" fill="#fff2d4"/>
</svg>
