<svg xmlns="http://www.w3.org/2000/svg" viewBox="0 0 120 120" width="64" height="64" role="img" aria-label="Serrow">
  <rect x="2" y="2" width="116" height="116" rx="26" fill="#05060c"/>
  <g transform="rotate(180 60 60)"><path d="M61.20 60.00 L61.21 60.12 L61.21 60.24 L61.20 60.36 L61.18 60.48 L61.14 60.60 L61.09 60.72 L61.03 60.83 L60.96 60.94 L60.88 61.04 L60.79 61.14 L60.68 61.23 L60.57 61.30 L60.45 61.37 L60.32 61.43 L60.18 61.47 L60.04 61.51 L59.89 61.52 L59.74 61.53 L59.59 61.52 L59.43 61.49 L59.28 61.45 L59.13 61.39 L58.99 61.32 L58.85 61.24 L58.72 61.13 L58.60 61.02 L58.48 60.89 L58.38 60.75 L58.29 60.60 L58.22 60.44 L58.16 60.27 L58.11 60.09 L58.09 59.91 L58.08 59.72 L58.09 59.53 L58.11 59.34 L58.16 59.15 L58.23 58.96 L58.31 58.77 L58.42 58.60 L58.54 58.43 L58.68 58.27 L58.83 58.12 L59.01 57.99 L59.19 57.88 L59.39 57.78 L59.61 57.70 L59.83 57.64 L60.06 57.60 L60.29 57.58 L60.53 57.58 L60.78 57.61 L61.02 57.67 L61.25 57.74 L61.49 57.84 L61.71 57.97 L61.93 58.12 L62.13 58.29 L62.32 58.48 L62.49 58.69 L62.64 58.92 L62.77 59.17 L62.88 59.44 L62.96 59.71 L63.02 60.00 L63.05 60.30 L63.05 60.60 L63.02 60.90 L62.96 61.20 L62.87 61.51 L62.75 61.80 L62.60 62.09 L62.42 62.36 L62.21 62.62 L61.98 62.86 L61.71 63.08 L61.43 63.28 L61.12 63.45 L60.79 63.59 L60.45 63.71 L60.09 63.79 L59.72 63.83 L59.34 63.84 L58.96 63.81 L58.58 63.75 L58.20 63.64 L57.82 63.50 L57.46 63.32 L57.11 63.11 L56.78 62.85 L56.47 62.57 L56.18 62.24 L55.93 61.89 L55.70 61.51 L55.52 61.11 L55.36 60.68 L55.25 60.23 L55.19 59.77 L55.16 59.29 L55.19 58.81 L55.26 58.33 L55.37 57.85 L55.54 57.38 L55.75 56.92 L56.02 56.47 L56.32 56.05 L56.67 55.65 L57.07 55.28 L57.50 54.95 L57.97 54.66 L58.48 54.41 L59.01 54.20 L59.57 54.05 L60.15 53.95 L60.74 53.91 L61.34 53.92 L61.95 54.00 L62.56 54.13 L63.16 54.33 L63.74 54.58 L64.31 54.89 L64.85 55.27 L65.36 55.70 L65.83 56.18 L66.26 56.71 L66.64 57.30 L66.97 57.92 L67.24 58.58 L67.45 59.28 L67.59 60.00 L67.66 60.74 L67.66 61.50 L67.59 62.26 L67.44 63.03 L67.21 63.79 L66.91 64.53 L66.54 65.25 L66.08 65.94 L65.56 66.59 L64.97 67.20 L64.31 67.75 L63.59 68.25 L62.82 68.68 L62.00 69.04 L61.13 69.32 L60.23 69.52 L59.30 69.63 L58.35 69.66 L57.39 69.59 L56.43 69.42 L55.47 69.16 L54.53 68.81 L53.61 68.36 L52.73 67.81 L51.90 67.18 L51.12 66.45 L50.40 65.64 L49.76 64.76 L49.20 63.80 L48.72 62.78 L48.34 61.70 L48.06 60.58 L47.89 59.41 L47.83 58.22 L47.89 57.02 L48.07 55.80 L48.37 54.59 L48.78 53.40 L49.32 52.24 L49.98 51.12 L50.75 50.06 L51.64 49.06 L52.63 48.13 L53.72 47.30 L54.90 46.56 L56.17 45.94 L57.51 45.43 L58.91 45.04 L60.37 44.79 L61.86 44.68 L63.38 44.72 L64.90 44.91 L66.43 45.24 L67.94 45.73 L69.41 46.37 L70.83 47.16 L72.19 48.10 L73.47 49.18 L74.66 50.39 L75.74 51.74 L76.70 53.20 L77.53 54.77 L78.21 56.44 L78.73 58.18 L79.09 60.00 L79.27 61.87 L79.27 63.77 L79.08 65.70 L78.71 67.62 L78.14 69.52 L77.38 71.39 L76.44 73.20 L75.30 74.93 L73.98 76.58 L72.50 78.10 L70.84 79.50 L69.04 80.75 L67.09 81.83 L65.02 82.73 L62.85 83.44 L60.58 83.94 L58.24 84.23 L55.85 84.29 L53.43 84.11 L51.01 83.70 L48.60 83.05 L46.24 82.15 L43.94 81.02 L41.73 79.65 L39.63 78.05 L37.67 76.22 L35.87 74.19 L34.25 71.97 L32.83 69.56 L31.64 66.99 L30.68 64.28 L29.98 61.45 L29.55 58.53 L29.41 55.53 L29.55 52.49 L29.99 49.44 L30.74 46.40 L31.79 43.41 L33.15 40.49 L34.80 37.68 L36.75 34.99 L38.97 32.48 L41.46 30.16 L44.21 28.06 L47.18 26.21 L50.37 24.63 L53.74 23.35 L57.27 22.39 L60.92 21.76 L64.68 21.48 L68.49 21.57 L72.33 22.04 L76.17 22.88 L79.96 24.11 L83.66 25.72 L87.24 27.71 L90.66 30.07 L93.89 32.78 L96.87 35.84 L99.59 39.22 L102.00 42.90 L104.08 46.85 L105.79 51.04 L107.10 55.43 L108.00 60.00" fill="none" stroke="#f2c879" stroke-width="5" stroke-linecap="round"/></g>
  <circle cx="60" cy="60" r="6" fill="#f2c879"/>
</svg>
